PathFileType	3	(X/Y/Z)	F:\ViconData\AntennenMessung\Messung1\Session1\ID08.trc
DataRate	CameraRate	NumFrames	NumMarkers	Units	OrigDataRate	OrigDataStartFrame	OrigNumFrames
120.0	120.0	4	70	mm	120.0	776	1240	
Frame#	Time	Ashort			Along			Atop			A4			Bshort			Blong			Btop			B4			Cshort			Clong			Ctop			C4			Dshort			Dlong			Dtop			D4			Eshort			Elong			Etop			E4			Fshort			Flong			Ftop			F4			Gshort			Glong			Gtop			G4			Hshort			Hlong			Htop			H4			I1			I2			I3			I4			I5			WandAshort			WandAlong			WandAtop			WandA4			WandA15			WandBshort			WandB4			WandB5			WandBtop			WandBlong			WandCshort			WandClong			WandCtop			WandC4			WandC5			Acenter			Aantenna			Bcenter			Bantenna			Ccenter			Cantenna			Dcenter			Dantenna			Ecenter			Eantenna			Fcenter			Fantenna			Gcenter			Gantenna			Hcenter			Hantenna			Icenter			Iantenna			
		X1	Y1	Z1	X2	Y2	Z2	X3	Y3	Z3	X4	Y4	Z4	X5	Y5	Z5	X6	Y6	Z6	X7	Y7	Z7	X8	Y8	Z8	X9	Y9	Z9	X10	Y10	Z10	X11	Y11	Z11	X12	Y12	Z12	X13	Y13	Z13	X14	Y14	Z14	X15	Y15	Z15	X16	Y16	Z16	X17	Y17	Z17	X18	Y18	Z18	X19	Y19	Z19	X20	Y20	Z20	X21	Y21	Z21	X22	Y22	Z22	X23	Y23	Z23	X24	Y24	Z24	X25	Y25	Z25	X26	Y26	Z26	X27	Y27	Z27	X28	Y28	Z28	X29	Y29	Z29	X30	Y30	Z30	X31	Y31	Z31	X32	Y32	Z32	X33	Y33	Z33	X34	Y34	Z34	X35	Y35	Z35	X36	Y36	Z36	X37	Y37	Z37	X38	Y38	Z38	X39	Y39	Z39	X40	Y40	Z40	X41	Y41	Z41	X42	Y42	Z42	X43	Y43	Z43	X44	Y44	Z44	X45	Y45	Z45	X46	Y46	Z46	X47	Y47	Z47	X48	Y48	Z48	X49	Y49	Z49	X50	Y50	Z50	X51	Y51	Z51	X52	Y52	Z52	X53	Y53	Z53	X54	Y54	Z54	X55	Y55	Z55	X56	Y56	Z56	X57	Y57	Z57	X58	Y58	Z58	X59	Y59	Z59	X60	Y60	Z60	X61	Y61	Z61	X62	Y62	Z62	X63	Y63	Z63	X64	Y64	Z64	X65	Y65	Z65	X66	Y66	Z66	X67	Y67	Z67	X68	Y68	Z68	X69	Y69	Z69	X70	Y70	Z70	
776	6.4583333	-1038.1923	214.44492	-1644.0281	-1109.3486	203.94763	-1599.4313	-1063.6589	173.13542	-1625.819	-1054.1255	262.16861	-1634.8496	-1352.8278	235.10284	1003.9788	-1281.3145	227.39922	1052.2625	-1322.89	193.92908	1020.9509	-1284.3843	287.9335	1052.7351	814.07092	187.67072	1209.4708	892.39441	178.64169	1179.047	844.59283	145.43683	1198.3608	861.57062	292.8006	1169.0986	1115.8646	209.63255	-1401.6088	1056.3955	194.03523	-1460.0502	1095.2303	162.32024	-1423.8546	1069.8578	238.86441	-1425.8669	-1204.6351	1686.0671	-1563.0499	-1129.1171	1688.2902	-1605.9537	-1173.0605	1724.3408	-1581.9517	-1134.0093	1581.0837	-1603.7448	-1239.5822	1699.1007	1119.4215	-1309.5013	1699.0338	1072.0223	-1270.4231	1736.2668	1096.8839	-1245.5967	1592.7961	1110.6765	988.93365	1664.2821	1162.2435	957.3374	1700.5415	1183.7419	922.01288	1662.3484	1214.8374	939.88593	1659.4293	1159.8556	999.28918	1668.4794	-1579.3177	1059.0538	1670.2216	-1518.5945	1025.1295	1708.0563	-1551.0693	1059.4034	1672.2081	-1585.4396	393.00861	1170.2355	-32.904243	395.59717	1172.4116	-116.91027	396.35971	1208.4706	-69.448212	427.10373	1169.3898	-69.175087	346.552	1174.6699	-71.019958																																														-1068.5713	209.96327	-1624.988	-1073.7264	248.61122	-1624.1163	-1321.5955	231.73839	1025.0659	-1320.2688	270.48697	1029.2832	848.17761	183.73894	1196.2224	851.80627	222.5094	1194.0581	1088.8783	202.55466	-1428.1288	1082.8296	240.86717	-1432.1989	-1171.8165	1687.0331	-1581.6949	-1170.5167	1648.0557	-1581.4269	-1271.1558	1699.0704	1098.0172	-1271.9236	1660.0962	1099.2048	952.78595	1705.7645	1186.8386	972.74445	1733.923	1168.6794	1026.6824	1669.2778	-1551.4851	1028.2428	1630.3113	-1551.9028	394.16647	1171.2089	-70.48098	391.87579	1132.2911	-71.559662
777	6.4666667	-1038.1942	214.49638	-1644.0601	-1109.3662	204.07022	-1599.4791	-1063.6597	173.13029	-1625.865	-1054.1268	262.17752	-1634.8579	-1352.7136	235.18919	1003.8895	-1281.3441	227.33717	1052.3521	-1322.8713	193.9445	1020.9393	-1284.3894	287.91818	1052.7831	814.00299	187.84418	1209.4963	892.45654	178.72589	1178.9669	844.52576	145.3978	1198.3011	861.44415	292.38287	1168.0349	1115.929	209.92104	-1401.7396	1056.3879	194.05542	-1460.0984	1095.3052	162.45216	-1423.8923	1069.798	238.86072	-1425.8342	-1204.6333	1686.0768	-1563.0363	-1129.1656	1688.3882	-1606.454	-1173.0574	1724.3259	-1581.9541	-1134.0071	1581.077	-1603.731	-1239.5889	1699.1129	1119.4236	-1309.4325	1698.9449	1071.9873	-1270.4243	1736.2797	1096.8965	-1245.6033	1592.8167	1110.684	988.90875	1664.2614	1162.2736	957.40143	1700.578	1183.7368	921.92987	1662.4152	1214.8892	939.89392	1659.4189	1159.8851	999.28748	1668.4875	-1579.337	1059.0513	1670.2233	-1518.5846	1025.1244	1708.0521	-1551.0664	1059.4111	1672.1637	-1585.3363	392.99487	1170.2346	-32.903927	395.6066	1172.4135	-116.90189	396.35178	1208.4701	-69.450699	427.11472	1169.3953	-69.163261	346.55612	1174.6545	-71.0327																																														-1068.5535	210.04898	-1625.0433	-1073.677	248.7014	-1624.1833	-1321.5177	231.75705	1025.0725	-1320.1309	270.50162	1029.3076	848.17865	183.87209	1196.1971	851.85944	222.64008	1194.0771	1088.8649	202.70943	-1428.266	1082.7394	241.00003	-1432.4263	-1171.8752	1687.0801	-1581.8824	-1170.6381	1648.0996	-1581.8074	-1271.0994	1699.037	1098.0222	-1271.8058	1660.0613	1099.2003	952.85199	1705.8218	1186.8359	972.87555	1733.9298	1168.6699	1026.6812	1669.2831	-1551.4901	1028.2458	1630.3168	-1551.916	394.16336	1171.2095	-70.485252	391.87766	1132.2914	-71.565811
778	6.475	-1038.1862	214.50519	-1644.0708	-1109.3303	204.00578	-1599.4622	-1063.644	173.15717	-1625.88	-1054.1156	262.15567	-1634.9176	-1352.814	235.10236	1003.9866	-1281.3429	227.36487	1052.3785	-1322.8545	193.92554	1020.9956	-1284.4574	287.80136	1052.7889	814.10699	187.68333	1209.512	892.38751	178.63286	1179.0083	844.57257	145.48122	1198.296	861.36438	292.34705	1167.9924	1115.9227	209.93404	-1401.7482	1056.39	194.03108	-1460.0615	1095.3093	162.40843	-1423.8807	1069.8065	238.86935	-1425.8218	-1204.6339	1686.0886	-1563.0349	-1129.1682	1688.4102	-1606.4899	-1173.0619	1724.3348	-1581.9447	-1134.009	1581.0659	-1603.7295	-1239.569	1699.0699	1119.402	-1309.4481	1698.9618	1071.9899	-1270.4226	1736.2733	1096.8813	-1245.5471	1592.7241	1110.6559	988.9043	1664.2412	1162.2682	957.39587	1700.5127	1183.7798	922.06116	1662.3098	1214.8711	939.87195	1659.4519	1159.8729	999.29095	1668.484	-1579.3274	1059.0623	1670.2239	-1518.5928	1025.1294	1708.0479	-1551.0669	1059.4053	1672.2065	-1585.4397	393.00195	1170.2393	-32.906696	395.595	1172.4015	-116.91003	396.33948	1208.4596	-69.447273	427.04453	1169.4948	-69.174232	346.5513	1174.6691	-71.028389																																														-1068.5522	210.02376	-1625.0305	-1073.6978	248.67259	-1624.1401	-1321.5699	231.71985	1025.1414	-1320.2531	270.46521	1029.3914	848.19122	183.74265	1196.2303	851.85803	222.51341	1194.137	1088.8458	202.701	-1428.2705	1082.7041	240.98781	-1432.4417	-1171.8859	1687.0958	-1581.8918	-1170.655	1648.1154	-1581.8368	-1271.1202	1699.0211	1097.9948	-1271.8502	1660.0453	1099.1597	952.88763	1705.7021	1186.8575	972.87518	1733.8374	1168.6941	1026.6873	1669.2814	-1551.4894	1028.2532	1630.3152	-1551.9142	394.16156	1171.2062	-70.47345	391.88632	1132.2874	-71.545494
779	6.4833333	-1038.1858	214.46227	-1644.0402	-1109.3451	203.95163	-1599.4176	-1063.6443	173.11223	-1625.8661	-1054.1318	262.16571	-1634.8643	-1352.748	235.16086	1004.0016	-1281.3092	227.42133	1052.3052	-1322.7699	194.07262	1020.8029	-1284.3649	287.90921	1052.7675	814.14648	187.78342	1209.5787	892.82062	179.21352	1178.5978	844.53302	145.44009	1198.3016	861.3504	292.47375	1167.9897	1115.9077	209.92311	-1401.7598	1056.3805	194.01895	-1460.0828	1095.2327	162.34781	-1423.8273	1069.8358	238.8773	-1425.8563	-1204.6421	1686.1011	-1563.0098	-1129.1187	1688.2772	-1605.9583	-1173.0659	1724.328	-1581.9458	-1133.7393	1581.0526	-1603.5856	-1239.5664	1699.0726	1119.4119	-1309.4049	1698.8743	1071.9652	-1270.4227	1736.2858	1096.8854	-1245.5859	1592.7903	1110.6886	988.96881	1664.2775	1162.2635	957.43787	1700.4972	1183.8107	921.99963	1662.3242	1214.8525	939.8302	1659.4413	1159.8765	999.28387	1668.4708	-1579.333	1059.048	1670.2037	-1518.5894	1025.1224	1708.0449	-1551.0703	1059.4014	1672.1548	-1585.3287	393.00885	1170.2535	-32.87738	395.59378	1172.4056	-116.8983	396.33636	1208.4583	-69.453468	427.04883	1169.4789	-69.155983	346.55853	1174.6479	-71.038231																																														-1068.5471	209.97771	-1625.0011	-1073.6873	248.62686	-1624.0942	-1321.5756	231.78369	1025.0789	-1320.349	270.51617	1029.4708	847.94415	184.10185	1196.2697	851.36719	222.8978	1194.2305	1088.8284	202.68819	-1428.2913	1082.7495	240.97783	-1432.5282	-1171.8331	1687.0464	-1581.6674	-1170.5446	1648.0687	-1581.3762	-1271.0769	1698.9829	1098.0043	-1271.7606	1660.0065	1099.1736	952.84363	1705.7744	1186.9502	972.84277	1733.9475	1168.8584	1026.6755	1669.265	-1551.4922	1028.2363	1630.2986	-1551.9163	394.16553	1171.2163	-70.474159	391.89691	1132.297	-71.540833
